<svg width="302" height="259" viewBox="0 0 302 259" fill="none" xmlns="http://www.w3.org/2000/svg">
<g clip-path="url(#clip0_45_69)">
<path d="M218.836 150.614C191.576 140.483 79.6794 103.916 0.0301743 153.013C-91.2692 209.291 -33.2614 235.189 0.0301743 258.597C29.0436 278.996 178.353 263.839 216.247 259.607C221.27 259.046 225 254.797 225 249.743V159.652C225 155.629 222.608 152.016 218.836 150.614Z" fill="#0D6EFD"/>
<path d="M302 0H238C229.716 0 223 6.71572 223 15V259H302V0Z" fill="#FF7A00"/>
<path d="M174.5 91C189.177 69.4365 222.899 79.8006 222.932 105.885L223 160H129L143.5 125.5L155 122L174.5 91Z" fill="#0D6EFD"/>
<path d="M93.5 153C135.75 153 170 118.75 170 76.5C170 34.2502 135.75 0 93.5 0C51.2502 0 17 34.2502 17 76.5C17 118.75 51.2502 153 93.5 153Z" fill="#14FF00"/>
<path d="M0 256.5L280 257" stroke="#FF7A00" stroke-width="5" stroke-linecap="round"/>
</g>
<defs>
<clipPath id="clip0_45_69">
<rect width="302" height="259" fill="white"/>
</clipPath>
</defs>
</svg>
